# xmcd CD database file
#
# Track frame offsets:
#	150
#	22406
#	48864
#	78580
#	108304
#	139340
#	162000
#	186361
#	214291
#	237319
#
# Disc length: 3422 seconds
#
# Revision: 8
# Processed by: cddbd v1.5.2PL0 Copyright (c) Steve Scherf et al.
# Submitted via: CDex 1.51
#
DISCID=8e0d5c0a
DTITLE=Dixie Chicks - Wide Open Spaces
DYEAR=1998
DGENRE=Country
TTITLE0=I Can Love You Better
TTITLE1=Wide Open Spaces
TTITLE2=Loving Arms
TTITLE3=There's Your Trouble
TTITLE4=You Were Mine
TTITLE5=Never Say Die
TTITLE6=Tonight The Heartache's On Me
TTITLE7=Let 'Er Rip
TTITLE8=Once You've Loved Sombody
TTITLE9=I'll Take Care Of You
EXTD=YEAR: 1998
EXTT0=
EXTT1=
EXTT2=
EXTT3=
EXTT4=
EXTT5=
EXTT6=
EXTT7=
EXTT8=
EXTT9=
PLAYORDER=
